inDegrees=no
num_controls=7
num_derivatives=13
num_iterations=154
num_multipliers=7
num_parameters=0
num_slacks=7
num_states=26
objective=0.545878
objective_accelerations=0.041681
objective_balance=0.003789
objective_effort=0.040323
objective_height=0.450615
objective_ligament=0.009470
solver_duration=1681.848219
status=Solve_Succeeded
success=true
DataType=double
version=3
OpenSimVersion=4.5
endheader
time	/jointset/ground_pelvis/pelvis_tilt/value	/jointset/ground_pelvis/pelvis_tx/value	/jointset/ground_pelvis/pelvis_ty/value	/jointset/hip_r/hip_flexion_r/value	/jointset/hip_r/hip_adduction_r/value	/jointset/hip_r/hip_rotation_r/value	/jointset/back/lumbar_extension/value	/jointset/patellofemoral_r/patellar_flexion_r/value	/jointset/knee_r/knee_flexion_r/value	/jointset/knee_r/knee_adduction_r/value	/jointset/knee_r/knee_rotation_r/value	/jointset/ankle_r/ankle_angle_r/value	/jointset/subtalar_r/subtalar_angle_r/value	/jointset/ground_pelvis/pelvis_tilt/speed	/jointset/ground_pelvis/pelvis_tx/speed	/jointset/ground_pelvis/pelvis_ty/speed	/jointset/hip_r/hip_flexion_r/speed	/jointset/hip_r/hip_adduction_r/speed	/jointset/hip_r/hip_rotation_r/speed	/jointset/back/lumbar_extension/speed	/jointset/patellofemoral_r/patellar_flexion_r/speed	/jointset/knee_r/knee_flexion_r/speed	/jointset/knee_r/knee_adduction_r/speed	/jointset/knee_r/knee_rotation_r/speed	/jointset/ankle_r/ankle_angle_r/speed	/jointset/subtalar_r/subtalar_angle_r/speed	/forceset/tau_hip_flexion_r	/forceset/tau_hip_adduction_r	/forceset/tau_hip_rotation_r	/forceset/tau_knee_flexion_r	/forceset/tau_ankle_angle_r	/forceset/tau_subtalar_angle_r	/forceset/tau_lumbar_extension	lambda_cid13_p0	lambda_cid14_p0	lambda_cid14_p1	lambda_cid14_p2	lambda_cid14_p3	lambda_cid14_p4	lambda_cid14_p5	/jointset/ground_pelvis/pelvis_tilt/accel	/jointset/ground_pelvis/pelvis_tx/accel	/jointset/ground_pelvis/pelvis_ty/accel	/jointset/hip_r/hip_flexion_r/accel	/jointset/hip_r/hip_adduction_r/accel	/jointset/hip_r/hip_rotation_r/accel	/jointset/back/lumbar_extension/accel	/jointset/patellofemoral_r/patellar_flexion_r/accel	/jointset/knee_r/knee_flexion_r/accel	/jointset/knee_r/knee_adduction_r/accel	/jointset/knee_r/knee_rotation_r/accel	/jointset/ankle_r/ankle_angle_r/accel	/jointset/subtalar_r/subtalar_angle_r/accel	gamma_cid13_p0	gamma_cid14_p0	gamma_cid14_p1	gamma_cid14_p2	gamma_cid14_p3	gamma_cid14_p4	gamma_cid14_p5
1.5	-0.2225946044541387	0.007705959961382894	0.8502293855984399	0.863564790394294	-0.2252703973453604	-0.142965517055105	-0.3047569894654553	0.6498708545408766	0.6498708545408742	0.03701542336050311	0.1745200273441924	0.1763694634105219	0.03854781334594758	0.5422088326655369	0.233729277677081	0.3967555020896037	-1.95878636165865	0.01130114448663698	-0.2887442502731383	0.6963113547754587	-1.738740385899244	-1.738740385899244	0.2787371248514395	5.011584288508401e-05	-0.403409753126353	-0.09015498928989309	-0.1408387967044403	-0.02309188344970975	0.007627974338090032	-0.2949874929338296	0.105164603329425	-0.008055122463850112	0.1741292886288839	-34.09762032082402	-7.818762501820864	-0.4487798909093894	-4.515551943036104	-2.189706265195056	-659.1238080244192	59.94535067221089	0.261196416910571	0.5242378577214711	-0.4475290640168498	-1.146962427214991	0.0008390431320268576	-0.5062438480861617	1.656934744670878	-1.094150349264633	-1.094150349264633	0.4533726215011836	-0.003103391071383839	-0.3309131773752919	-0.04694947918056271	1.27681195877147e-07	1.867573707388302e-07	-4.221905190833507e-07	1.271790401980284e-06	-6.128164238203199e-08	2.501391691688406e-07	-4.790377615101368e-07
1.51	-0.217159977980174	0.01006918871278054	0.8541737295147303	0.8439217273067842	-0.2251582069991434	-0.1458772245728937	-0.2977122079471642	0.6324310258640019	0.6324310258640007	0.0398275154032217	0.1745204667048505	0.1723191361381914	0.03764293956285989	0.544638657154538	0.2388844042299214	0.3920291812041816	-1.969557581465694	0.01114186127118579	-0.2935912791759808	0.7125490457004751	-1.748979827719712	-1.748979827719712	0.2836489084036606	3.501433854294215e-05	-0.4065928305927516	-0.09079593304991732	-0.1331760227595883	-0.02446375524772586	0.006996548759317787	-0.2921073269463659	0.1072038571476589	-0.008781718301356137	0.167479269488712	-35.00007169207015	-6.977449188168757	-0.5289958870385859	-4.603321959558991	-2.398325000078718	-655.0517881008409	59.89130728761085	0.2222245255939027	0.506327681843494	-0.497743789863297	-1.001874900653389	-0.02342228232798614	-0.4728152134401554	1.592800789077251	-0.9520401401797338	-0.952040140179894	0.5052234709173544	-0.0008711134303679867	-0.3025664535634358	-0.06901034368918382	1.335185569558844e-07	1.92996331222891e-07	-4.610206071727104e-07	1.31540942878131e-06	-6.081969012186858e-08	2.659057438838774e-07	-5.265477466887507e-07
1.52	-0.2117033834491796	0.01248300425526223	0.8580682981843546	0.8241790173925633	-0.2250474315407698	-0.1488371789401222	-0.2905079266150911	0.6148961629605741	0.6148961629605739	0.04268775373122946	0.1745207235338021	0.1682388658067387	0.03673238763831679	0.5466024440715	0.243846635893889	0.3868004527564375	-1.978715727000907	0.01101816691796302	-0.2983936201611004	0.7282113175319003	-1.757747231209857	-1.757747231209859	0.2883663819092728	1.360950161066532e-05	-0.409398364950802	-0.09129061758097531	-0.1255132488147459	-0.025835627045742	0.006365123180545675	-0.2892271609589023	0.1092431109658927	-0.009508314138862196	0.1608292503485402	-35.87048220347442	-6.143999448301768	-0.6068293371400023	-4.695766873679549	-2.60770560859243	-651.1092643642992	59.91846484489907	0.1679889025027679	0.485658879946935	-0.5480105764812416	-0.8243475728484637	0.007956815577728631	-0.4973062645418491	1.541850925952599	-0.7997426832003228	-0.7997426832003226	0.414510612179385	-0.004364057589469722	-0.2554045557056659	-0.01769763338737111	1.415563773640833e-07	1.957132238860713e-07	-5.458945685036792e-07	1.334111531287108e-06	-5.343042193598223e-08	2.795723336202457e-07	-5.855689416774127e-07
1.53	-0.2062295061337162	0.01494544192485662	0.8619081268946125	0.8043528072807604	-0.2249378000265065	-0.1518451761996389	-0.2831500510613075	0.5972810366203188	0.5972810366203194	0.04559421347413153	0.1745210150599033	0.1641324467231862	0.03581752858761474	0.5480910733797485	0.248604591901974	0.3810868932487093	-1.986248613893935	0.01091169354096394	-0.3031903135197098	0.7432530454866048	-1.765022748916388	-1.765022748916389	0.2928975073532115	3.982206222809994e-05	-0.4118175091476489	-0.09165850700890732	-0.1176657301543574	-0.02752255201566423	0.005757408594082243	-0.2866756584183741	0.111727863763097	-0.01036396802565407	0.1540348182516189	-36.70431157203622	-5.182106487840768	-0.7213665215185039	-4.778768916452736	-2.883902472227859	-647.3012585353863	59.94917594140278	0.1270274876266017	0.4654118858549214	-0.5947286189536053	-0.6760816415449605	-0.01929872463623115	-0.4682820549845437	1.468721569497768	-0.6531946230375376	-0.6531946230374267	0.468165630673142	0.005635854505005093	-0.2249636397128945	-0.04289482882852809	1.51932185809835e-07	1.946879194895662e-07	-6.796901451538571e-07	1.326339401729226e-06	-3.868088057901533e-08	2.910076893167787e-07	-6.56820797089251e-07
1.54	-0.2007431970166422	0.01745436873945499	0.8656884800135861	0.7844596038212245	-0.2248291031080727	-0.1549006266294345	-0.2756450806601231	0.5796008074412665	0.5796008074412679	0.04854513489550741	0.1745214730999341	0.1600038773400575	0.0348996785963669	0.5490888043936376	0.2531444648946843	0.3749053344995819	-1.992114396547559	0.01083124775206469	-0.3078842542168819	0.7576302870120453	-1.770767798969241	-1.770767798969243	0.2972587176040313	4.691228755207331e-05	-0.4138284248660433	-0.09188880569013579	-0.1098182114939688	-0.02920947698558692	0.00514969400761887	-0.2841241558778458	0.1142126165603012	-0.01121962191244598	0.1472403861546976	-37.49701325279299	-4.228697471011133	-0.8335222090404178	-4.866568507941916	-3.158692856958697	-643.6325944568191	60.06553060274722	0.06980924363092741	0.4420422768719803	-0.6416104247610226	-0.4909267249672488	0.01316233319769473	-0.4767557322544117	1.408953640099797	-0.4936491524647196	-0.4936491524651667	0.380527573555595	-0.008188524648128198	-0.1737588600151566	0.009820515953342324	1.623894849285539e-07	1.937794238157098e-07	-8.120307337330435e-07	1.319370219817507e-06	-2.437149076043801e-08	3.027730032285232e-07	-7.262448626889904e-07
1.55	-0.1952493775635647	0.02000753063879534	0.8694047323585795	0.7645161479093809	-0.2247211995146086	-0.1580026405647529	-0.2679998703380758	0.5618708644943169	0.5618708644943172	0.05153894860066612	0.174522132383703	0.1558572097132803	0.03398006826634802	0.5495912907538508	0.2574436585874103	0.3682720686224856	-1.996285348697213	0.01074684023029776	-0.312484112922476	0.7712790282722847	-1.774951376873455	-1.774951376873456	0.3014906708157134	7.409408412513179e-05	-0.4154365169920057	-0.0920186592041881	-0.1018563316359527	-0.03106859062435571	0.00455698804248153	-0.2817163785216726	0.1168477950115943	-0.01226312613535705	0.1403365840541451	-38.24403858340623	-3.245248376884308	-1.026833548784764	-4.935909468263585	-3.39375388192523	-640.0850573059766	60.08527979983491	0.0279178913263455	0.4172188773146952	-0.6850802174809099	-0.3364388817232171	-0.01955279373877002	-0.4461784398101476	1.322922000216407	-0.3403358378070326	-0.340335837806835	0.4424504807521056	0.006797877470985601	-0.1440264836695174	-0.02220417964920143	1.729406754748218e-07	1.930055121049051e-07	-9.426949230130439e-07	1.313326173237236e-06	-1.056923206217908e-08	3.149184863882288e-07	-7.93562996548703e-07
1.56	-0.1897530433350631	0.02260235666743133	0.8730524729351427	0.7445397305916891	-0.224614202096137	-0.1611495685871469	-0.2602221550771801	0.5441071610226438	0.5441071610226428	0.05457466609509717	0.1745227887545699	0.1516965227462869	0.03305959622227548	0.5495917594784593	0.2614772907538128	0.3612029808135108	-1.998706677717215	0.01065001275356328	-0.316867071632	0.7841312747817396	-1.777519903913966	-1.777519903913966	0.3056394754584987	4.63297071366536e-05	-0.4166322929092777	-0.09206114850087525	-0.09389445177795509	-0.03292770426312452	0.003964282077344256	-0.2793086011654993	0.1194829734628873	-0.01330663035826816	0.1334327819535928	-38.94092355872438	-2.270822771458553	-1.217559083940978	-5.010421780257696	-3.62662873742181	-636.6869386668055	60.19459882836214	-0.03059428349001828	0.3889299716072864	-0.7287748111367265	-0.1410020990369033	0.01067834220696099	-0.4333757330404163	1.249654689942876	-0.1706389797243867	-0.170638979724387	0.3638978597762175	-0.01917775936044001	-0.0912956182770723	0.02729335942162275	1.836691989854913e-07	1.919835777693269e-07	-1.079329817172451e-06	1.303209591303133e-06	3.279972959343585e-09	3.297236652505382e-07	-8.607207971141386e-07
1.57	-0.1842592283577294	0.02523610954879736	0.8766274094998191	0.7245479411914464	-0.2245082595803348	-0.1643396523680176	-0.2523201589455176	0.5263259307819179	0.5263259307819178	0.05765127249380043	0.1745232625608897	0.1475259228706516	0.03213911554212615	0.5490834865749467	0.2652202536668637	0.3537170135132333	-1.999338904263339	0.01053781216283985	-0.32111735759691	0.7961108845218144	-1.778438385918251	-1.778438385918251	0.3096550830396472	4.346244244290069e-05	-0.4174154936532227	-0.09201750654461605	-0.08578690298998874	-0.0350363152384611	0.00336927918396114	-0.2771205596063429	0.1223400601368519	-0.01450235442977871	0.1264013170378339	-39.58331277353272	-1.244494769342271	-1.468031957727351	-5.072294213289395	-3.831316392413447	-633.453413713382	60.26185291640977	-0.07408853627857592	0.3590297123611663	-0.7685338223912422	0.0225359178503508	-0.022227559110924	-0.4157302608956353	1.148554061700258	-0.009329248648513941	-0.009329248648507447	0.4162653882743467	0.008666327987249183	-0.06097680623722348	-0.004533781103284087	1.946193887016625e-07	1.906516151527821e-07	-1.223428092431117e-06	1.288002340176741e-06	1.718786088494591e-08	3.478534637411024e-07	-9.276781810617275e-07
1.58	-0.1787731250579302	0.02790570211153534	0.8801254811649093	0.7045592032957924	-0.2244034507303195	-0.1675712140550732	-0.2443030787273223	0.5085441404335757	0.5085441404335762	0.06076720960451319	0.1745236092021647	0.1433496620868201	0.03121958460257314	0.5480494239715669	0.2686452270282011	0.3458300008962364	-1.998096376799444	0.01042327959615927	-0.3251626528689939	0.8071480920883084	-1.777631925437252	-1.777631925437252	0.3135056178604016	2.089669819266162e-05	-0.4177644745485281	-0.09187120038161102	-0.07767935420202238	-0.03714492621379399	0.002774276290578095	-0.2749325180471865	0.1251971468108165	-0.01569807850128931	0.1193698521220751	-40.16860260672752	-0.2269303381545479	-1.715803931113091	-5.13943576656869	-4.036285709054873	-630.368185769325	60.42027492822843	-0.135752223463425	0.325332061264563	-0.8089838744805877	0.2339487029667005	0.01021194701552859	-0.3923775944752063	1.061174255226728	0.1743495173324418	0.1743495173324419	0.3308833076972642	-0.02311745527175418	-0.004451648549139322	0.04782620077078098	2.055945458343469e-07	1.910309679572848e-07	-1.365520557309256e-06	1.277955881858634e-06	2.843910572717743e-08	3.740334784362384e-07	-9.941485314950093e-07
